<svg width="512" height="512" xmlns="http://www.w3.org/2000/svg" xmlns:svg="http://www.w3.org/2000/svg">
 <!-- Created with SVG-edit - http://svg-edit.googlecode.com/ -->
 <g>
  <title>Layer 1</title>
  <path stroke="#000000" id="svg_1" d="m403.4391,85.38918c-24.20739,-24.41767 -50.31639,-43.97775 -71.73382,-46.64438c-1.16595,-0.17297 -2.37355,-0.27387 -3.65054,-0.3027l-140.9553,0c-2.24862,0 -4.46948,0.9081 -6.05185,2.59456c-1.56848,1.64322 -2.49847,3.94949 -2.49847,6.29901l0,371.16587c0,2.3351 0.87446,4.5693 2.49847,6.27018c1.624,1.67205 3.76158,2.58014 6.05185,2.58014l254.89937,0c2.24862,0 4.40008,-0.89368 6.02409,-2.58014c1.624,-1.68646 2.52623,-3.92066 2.52623,-6.27018l0,-246.98747c-0.49969,-28.66986 -22.12533,-59.93428 -47.11002,-86.1249zm-12.03429,12.56919c11.17371,11.32957 21.22311,24.15821 28.71851,36.5256c-6.49602,-2.66663 -13.31129,-4.64138 -19.71014,-6.21252c-14.08859,-3.28644 -27.87181,-4.61255 -36.43601,-5.14587c0.04164,-1.91709 0.05552,-4.07922 0.05552,-6.42874c0,-12.52595 -0.76342,-30.38515 -4.94142,-46.12547c-0.04164,-0.14414 -0.0694,-0.28828 -0.12492,-0.43243c10.60461,7.26476 22.15309,16.90787 32.43846,27.81942zm42.01592,311.62078l-237.79873,0l0,-353.40757l132.44662,0l0,0.02883c5.77424,-0.36036 10.7573,5.56388 14.5744,19.11324c3.4701,12.90072 4.34456,29.7221 4.33068,41.38319c0.02776,8.54763 -0.37477,14.28448 -0.37477,14.28448l-0.68014,9.39806l9.10553,0.1009c0.04164,0 21.04266,0.25946 41.64115,5.11704c19.79343,4.43958 35.27005,13.2899 36.71361,23.30778c0.05552,0.89368 0.0694,1.78736 0.05552,2.62339l0,238.05066l-0.01388,0z" stroke-width="0" fill="#000000"/>
  <rect stroke="#000000" id="svg_8" height="256" width="249" y="199" x="96" stroke-linecap="null" stroke-linejoin="null" stroke-dasharray="null" stroke-width="0" fill="#ffffff"/>
  <rect stroke="#000000" id="svg_9" height="41" width="236.00001" y="163" x="96" stroke-linecap="null" stroke-linejoin="null" stroke-dasharray="null" stroke-width="0" fill="#ffffff"/>
  <rect stroke="#000000" id="svg_11" height="22" width="223.00001" y="144" x="96" stroke-linecap="null" stroke-linejoin="null" stroke-dasharray="null" stroke-width="0" fill="#ffffff"/>
  <rect id="svg_10" height="20" width="51" y="163" x="207" stroke-linecap="null" stroke-linejoin="null" stroke-dasharray="null" stroke-width="0" stroke="#000000" fill="#ffffff"/>
  <rect stroke="#000000" id="svg_12" height="22" width="205.00001" y="123" x="95.49999" stroke-linecap="null" stroke-linejoin="null" stroke-dasharray="null" stroke-width="0" fill="#ffffff"/>
  <rect stroke="#000000" id="svg_13" height="16" width="186" y="110" x="95.49999" stroke-linecap="null" stroke-linejoin="null" stroke-dasharray="null" stroke-width="0" fill="#ffffff"/>
  <rect stroke="#000000" id="svg_14" height="22" width="153" y="91" x="92.49999" stroke-linecap="null" stroke-linejoin="null" stroke-dasharray="null" stroke-width="0" fill="#ffffff"/>
  <rect stroke="#000000" id="svg_7" height="17" width="203" y="217" x="115" stroke-linecap="null" stroke-linejoin="null" stroke-dasharray="null" stroke-width="0" fill="#000000"/>
  <rect id="svg_15" stroke="#000000" height="17" width="203" y="258.5" x="115.5" stroke-linecap="null" stroke-linejoin="null" stroke-dasharray="null" stroke-width="0" fill="#000000"/>
  <rect id="svg_16" stroke="#000000" height="17" width="203" y="304.5" x="116.5" stroke-linecap="null" stroke-linejoin="null" stroke-dasharray="null" stroke-width="0" fill="#000000"/>
  <rect id="svg_17" stroke="#000000" height="17" width="203" y="349.5" x="116.5" stroke-linecap="null" stroke-linejoin="null" stroke-dasharray="null" stroke-width="0" fill="#000000"/>
  <path id="svg_2" stroke="#000000" d="m306.88998,124.4922c-24.20739,-24.41767 -50.31639,-43.97775 -71.73382,-46.64438c-1.16596,-0.17297 -2.37355,-0.27387 -3.65055,-0.3027l-140.95529,0c-2.24862,0 -4.46949,0.9081 -6.05185,2.59456c-1.56848,1.64322 -2.49847,3.94949 -2.49847,6.29901l0,371.16587c0,2.33511 0.87447,4.56931 2.49847,6.27018c1.62401,1.67205 3.76158,2.58015 6.05185,2.58015l254.89936,0c2.24863,0 4.40009,-0.89368 6.02409,-2.58015c1.62401,-1.68646 2.52623,-3.92066 2.52623,-6.27018l0,-246.98746c-0.49969,-28.66986 -22.12533,-59.93428 -47.11002,-86.1249zm-12.03429,12.56919c11.1737,11.32957 21.2231,24.15821 28.71851,36.52561c-6.49602,-2.66663 -13.31129,-4.64138 -19.71015,-6.21253c-14.08858,-3.28644 -27.87181,-4.61255 -36.436,-5.14587c0.04164,-1.91709 0.05552,-4.07922 0.05552,-6.42874c0,-12.52595 -0.76342,-30.38515 -4.94142,-46.12547c-0.04164,-0.14414 -0.0694,-0.28828 -0.12492,-0.43242c10.60461,7.26476 22.15309,16.90786 32.43846,27.81942zm42.01592,311.62078l-237.79874,0l0,-353.40757l132.44663,0l0,0.02883c5.77423,-0.36036 10.75729,5.56388 14.5744,19.11324c3.47009,12.90072 4.34456,29.7221 4.33068,41.38319c0.02776,8.54763 -0.37477,14.28448 -0.37477,14.28448l-0.68014,9.39807l9.10553,0.1009c0.04164,0 21.04266,0.25945 41.64115,5.11704c19.79343,4.43958 35.27006,13.2899 36.71362,23.30778c0.05552,0.89368 0.0694,1.78736 0.05552,2.62338l0,238.05066l-0.01388,0z" stroke-width="0" fill="#000000"/>
  <rect id="svg_18" stroke="#000000" height="17" width="203" y="396.5" x="117.5" stroke-linecap="null" stroke-linejoin="null" stroke-dasharray="null" stroke-width="0" fill="#000000"/>
 </g>
</svg>